<?xml version="1.0" ?><svg id="Icons" viewBox="0 0 24 24" xmlns="http://www.w3.org/2000/svg"><title/><path d="M12,1a9.011,9.011,0,0,0-9,9V22a1,1,0,0,0,1.8.6L6.829,19.9l1.276,2.552a1,1,0,0,0,1.7.153L12,19.667,14.2,22.6a1,1,0,0,0,1.7-.153L17.171,19.9,19.2,22.6a1,1,0,0,0,.8.4,1.019,1.019,0,0,0,.316-.051A1,1,0,0,0,21,22V10A9.011,9.011,0,0,0,12,1Zm7,18-1.2-1.6a1,1,0,0,0-1.7.153l-1.276,2.552L12.8,17.4a1,1,0,0,0-1.6,0L9.171,20.105,7.9,17.553A1,1,0,0,0,6.2,17.4L5,19V10a7,7,0,0,1,14,0Z"/><path d="M9,9a1,1,0,0,0-1,1v2a1,1,0,0,0,2,0V10A1,1,0,0,0,9,9Z"/><path d="M15,9a1,1,0,0,0-1,1v2a1,1,0,0,0,2,0V10A1,1,0,0,0,15,9Z"/></svg>